<svg width="46" height="35" viewBox="0 0 46 35" fill="none" xmlns="http://www.w3.org/2000/svg">
<path d="M23 0L0 12.7679V34.9557H46V12.7679L23 0Z" fill="#F3F0ED"/>
<path d="M4.81984 23.4469L3.16016 15.4082H5.01794L6.62302 23.4469L5.01794 31.4855H3.16016L4.81984 23.4469ZM5.83062 23.4469L7.43571 15.4082H9.29349L7.63381 23.4469L9.29349 31.4855H7.43571L5.83062 23.4469Z" fill="black"/>
<path d="M12.7196 31.6655C12.2267 31.6655 11.7728 31.5465 11.3579 31.3086C10.9429 31.0707 10.6154 30.7462 10.3752 30.3352C10.1349 29.9243 10.0148 29.4747 10.0148 28.9864V26.8961H11.818V28.9864C11.818 29.1409 11.8601 29.2877 11.9444 29.4237C12.0286 29.5612 12.1394 29.6709 12.2782 29.7543C12.417 29.8377 12.5636 29.8795 12.7196 29.8795C12.8756 29.8795 13.0238 29.8377 13.1611 29.7543C13.2999 29.6709 13.4106 29.5612 13.4949 29.4237C13.5791 29.2877 13.6212 29.1409 13.6212 28.9864V27.0397C13.6212 26.6226 13.5635 26.2533 13.4496 25.932C13.3358 25.6106 13.1813 25.3248 12.9895 25.0745C12.7976 24.8242 12.52 24.5152 12.1596 24.146C12.1472 24.1336 12.1409 24.1259 12.1409 24.1197C12.1409 24.1135 12.1347 24.1042 12.1222 24.0934C12.1097 24.0826 12.0972 24.0702 12.0863 24.0579C12.0738 24.0455 12.0614 24.0347 12.0504 24.0223C11.6293 23.6052 11.2814 23.2174 11.0038 22.8605C10.7277 22.5036 10.4922 22.0741 10.3003 21.5751C10.1084 21.0745 10.0117 20.5028 10.0117 19.8601V17.9134C10.0117 17.4252 10.1318 16.9756 10.372 16.5646C10.6123 16.1537 10.9398 15.8292 11.3548 15.5913C11.7697 15.3533 12.2236 15.2344 12.7165 15.2344C13.2094 15.2344 13.6633 15.3533 14.0782 15.5913C14.4932 15.8292 14.8207 16.1537 15.061 16.5646C15.3012 16.9756 15.4213 17.4252 15.4213 17.9134V20.0038H13.6181V17.9134C13.6181 17.7589 13.576 17.6121 13.4917 17.4762C13.4075 17.3402 13.2968 17.229 13.1579 17.1455C13.0191 17.0621 12.8725 17.0204 12.7165 17.0204C12.5605 17.0204 12.4123 17.0621 12.2751 17.1455C12.1362 17.229 12.0255 17.3387 11.9413 17.4762C11.857 17.6137 11.8149 17.7589 11.8149 17.9134V19.8601C11.8149 20.2649 11.8711 20.6311 11.9865 20.9586C12.1004 21.2861 12.2532 21.572 12.4466 21.8161C12.6385 22.0602 12.9162 22.3738 13.2765 22.7539C13.289 22.7663 13.2952 22.7755 13.2952 22.7802C13.2952 22.7863 13.3014 22.7956 13.3139 22.8064C13.3264 22.8188 13.3373 22.8296 13.3498 22.842C13.3623 22.8543 13.3732 22.8667 13.3857 22.8775C13.8068 23.2947 14.1547 23.6778 14.4323 24.0301C14.7084 24.3823 14.944 24.8103 15.1358 25.3171C15.3277 25.8238 15.4244 26.3986 15.4244 27.0413V28.988C15.4244 29.4762 15.3043 29.9258 15.0641 30.3368C14.8239 30.7477 14.4963 31.0722 14.0814 31.3101C13.6664 31.5481 13.2125 31.667 12.7196 31.667V31.6655Z" fill="black"/>
<path d="M16.8691 15.4062H18.6723V22.5519H20.4755V15.4062H22.2787V31.4851H20.4755V24.3395H18.6723V31.4851H16.8691V15.4062Z" fill="black"/>
<path d="M24.984 15.4062H27.8697L29.4935 31.4851H27.6903L26.0493 15.4062H26.8074L25.1665 31.4851H23.3633L24.9871 15.4062H24.984ZM24.803 26.1255H28.0491V27.9115H24.803V26.1255Z" fill="black"/>
<path d="M32.9216 31.6647C32.4287 31.6647 31.9747 31.5457 31.5598 31.3078C31.1449 31.0698 30.8173 30.7454 30.5771 30.3344C30.3369 29.9234 30.2168 29.4738 30.2168 28.9856V17.9095C30.2168 17.4213 30.3369 16.9717 30.5771 16.5607C30.8173 16.1497 31.1449 15.8253 31.5598 15.5874C31.9747 15.3494 32.4287 15.2305 32.9216 15.2305C33.4145 15.2305 33.8684 15.3494 34.2833 15.5874C34.6982 15.8253 35.0258 16.1497 35.266 16.5607C35.5063 16.9717 35.6264 17.4213 35.6264 17.9095V19.9999H33.8232V17.9095C33.8232 17.7426 33.7842 17.5912 33.7062 17.4537C33.6282 17.3162 33.519 17.2096 33.3817 17.1324C33.2429 17.0551 33.09 17.0165 32.9216 17.0165C32.7531 17.0165 32.6002 17.0551 32.4614 17.1324C32.3226 17.2096 32.215 17.3178 32.137 17.4537C32.059 17.5912 32.02 17.7426 32.02 17.9095V28.9856C32.02 29.1525 32.059 29.3039 32.137 29.4414C32.215 29.5789 32.3226 29.6855 32.4614 29.7628C32.6002 29.84 32.7531 29.8786 32.9216 29.8786C33.09 29.8786 33.2429 29.84 33.3817 29.7628C33.5206 29.6855 33.6282 29.5789 33.7062 29.4414C33.7842 29.3039 33.8232 29.1525 33.8232 28.9856V26.8952H35.6264V28.9856C35.6264 29.4738 35.5063 29.9234 35.266 30.3344C35.0258 30.7454 34.6982 31.0698 34.2833 31.3078C33.8684 31.5457 33.4145 31.6647 32.9216 31.6647Z" fill="black"/>
<path d="M37.0684 15.4058H38.8715V22.5515H40.6747V24.3375H38.8715V31.4831H37.0684V15.4043V15.4058ZM39.3957 23.4445L40.9836 15.4058H42.8414L41.2534 23.4445L42.8414 31.4831H40.9836L39.3957 23.4445Z" fill="black"/>
</svg>
